<?xml version="1.0" encoding="UTF-8"?>
<svg width="26px" height="26px" viewBox="0 0 26 26" version="1.1" xmlns="http://www.w3.org/2000/svg" xmlns:xlink="http://www.w3.org/1999/xlink">
    <!-- Generator: Sketch 52.5 (67469) - http://www.bohemiancoding.com/sketch -->
    <title>48px / Blue / Adicionar</title>
    <desc>Created with Sketch.</desc>
    <g id="Page-1" stroke="none" stroke-width="1" fill="none" fill-rule="evenodd">
        <g id="inicial" transform="translate(-321.000000, -287.000000)" fill="#1F68C1">
            <g id="48px-/-Blue-/-Adicionar" transform="translate(321.000000, 287.000000)">
                <path d="M18.1212121,11.719697 L14.280303,11.719697 L14.280303,7.87878788 C14.280303,7.17206061 13.7067273,6.59848485 13,6.59848485 C12.2932727,6.59848485 11.719697,7.17206061 11.719697,7.87878788 L11.719697,11.719697 L7.87878788,11.719697 C7.17206061,11.719697 6.59848485,12.2932727 6.59848485,13 C6.59848485,13.7067273 7.17206061,14.280303 7.87878788,14.280303 L11.719697,14.280303 L11.719697,18.1212121 C11.719697,18.8279394 12.2932727,19.4015152 13,19.4015152 C13.7067273,19.4015152 14.280303,18.8279394 14.280303,18.1212121 L14.280303,14.280303 L18.1212121,14.280303 C18.8279394,14.280303 19.4015152,13.7067273 19.4015152,13 C19.4015152,12.2932727 18.8279394,11.719697 18.1212121,11.719697 Z M23.2424242,19.4015152 C23.2424242,21.5197765 21.5197765,23.2424242 19.4015152,23.2424242 L6.59848485,23.2424242 C4.48022348,23.2424242 2.75757576,21.5197765 2.75757576,19.4015152 L2.75757576,6.59848485 C2.75757576,4.48022348 4.48022348,2.75757576 6.59848485,2.75757576 L19.4015152,2.75757576 C21.5197765,2.75757576 23.2424242,4.48022348 23.2424242,6.59848485 L23.2424242,19.4015152 Z M19.4015152,0.196969697 L6.59848485,0.196969697 C3.06868939,0.196969697 0.196969697,3.06868939 0.196969697,6.59848485 L0.196969697,19.4015152 C0.196969697,22.9313106 3.06868939,25.8030303 6.59848485,25.8030303 L19.4015152,25.8030303 C22.9313106,25.8030303 25.8030303,22.9313106 25.8030303,19.4015152 L25.8030303,6.59848485 C25.8030303,3.06868939 22.9313106,0.196969697 19.4015152,0.196969697 Z" id="Page-1"></path>
            </g>
        </g>
    </g>
</svg>