<?xml version="1.0" encoding="UTF-8"?>
<svg width="26px" height="26px" viewBox="0 0 26 26" version="1.1" xmlns="http://www.w3.org/2000/svg" xmlns:xlink="http://www.w3.org/1999/xlink">
    <!-- Generator: Sketch 52.5 (67469) - http://www.bohemiancoding.com/sketch -->
    <title>24px / White / Lupa</title>
    <desc>Created with Sketch.</desc>
    <g id="Page-1" stroke="none" stroke-width="1" fill="none" fill-rule="evenodd">
        <g id="Filter-by-tag" transform="translate(-321.000000, -287.000000)" fill="#1F68C1">
            <g id="24px-/-White-/-Lupa" transform="translate(321.000000, 287.000000)">
                <path d="M11.5833333,20.0833333 C6.89558333,20.0833333 3.08333333,16.2710833 3.08333333,11.5833333 C3.08333333,6.89558333 6.89558333,3.08333333 11.5833333,3.08333333 C16.2710833,3.08333333 20.0833333,6.89558333 20.0833333,11.5833333 C20.0833333,16.2710833 16.2710833,20.0833333 11.5833333,20.0833333 M25.3345683,23.33175 L20.5250517,18.52075 C22.016781,16.6025833 22.9163519,14.1985 22.9163519,11.5833333 C22.9163519,5.33441667 17.8320058,0.25 11.5831759,0.25 C5.33434605,0.25 0.25,5.33441667 0.25,11.5833333 C0.25,17.83225 5.33434605,22.9166667 11.5831759,22.9166667 C14.1983063,22.9166667 16.6023562,22.0170833 18.5204962,20.5253333 L23.3314294,25.3349167 C23.6076756,25.6111667 23.9703372,25.75 24.3329988,25.75 C24.6956605,25.75 25.0583221,25.6111667 25.3345683,25.3349167 C25.8884772,24.781 25.8884772,23.8856667 25.3345683,23.33175" id="Fill-1"></path>
            </g>
        </g>
    </g>
</svg>