<?xml version="1.0" encoding="UTF-8"?>
<svg width="16px" height="18px" viewBox="0 0 16 18" version="1.1" xmlns="http://www.w3.org/2000/svg" xmlns:xlink="http://www.w3.org/1999/xlink">
    <!-- Generator: Sketch 52.5 (67469) - http://www.bohemiancoding.com/sketch -->
    <title>Page 1</title>
    <desc>Created with Sketch.</desc>
    <g id="Page-1" stroke="none" stroke-width="1" fill="none" fill-rule="evenodd">
        <g id="inicial" transform="translate(-1102.000000, -394.000000)" fill="#BDC4C9">
            <g id="Group" transform="translate(1102.000000, 394.000000)">
                <g id="24px-/-White-/-Lixo">
                    <path d="M12,15 C12,15.551 11.552,16 11,16 L5,16 C4.448,16 4,15.551 4,15 L4,6 L12,6 L12,15 Z M8,2 C9.103,2 10,2.897 10,4 L6,4 C6,2.897 6.897,2 8,2 Z M15,4 L12,4 C12,1.794 10.206,0 8,0 C5.794,0 4,1.794 4,4 L1,4 C0.447,4 0,4.448 0,5 C0,5.552 0.447,6 1,6 L2,6 L2,15 C2,16.654 3.346,18 5,18 L11,18 C12.654,18 14,16.654 14,15 L14,6 L15,6 C15.553,6 16,5.552 16,5 C16,4.448 15.553,4 15,4 Z" id="Page-1"></path>
                </g>
            </g>
        </g>
    </g>
</svg>