<?xml version="1.0" encoding="UTF-8"?>
<svg width="6px" height="6px" viewBox="0 0 6 6" version="1.1" xmlns="http://www.w3.org/2000/svg" xmlns:xlink="http://www.w3.org/1999/xlink">
    <!-- Generator: Sketch 52.5 (67469) - http://www.bohemiancoding.com/sketch -->
    <title>Path</title>
    <desc>Created with Sketch.</desc>
    <g id="Page-1" stroke="none" stroke-width="1" fill="none" fill-rule="evenodd">
        <g id="inicial" transform="translate(-466.000000, -748.000000)" fill="#FFFFFF">
            <g id="icon-/-tag-/-new" transform="translate(418.000000, 743.000000)">
                <g id="24px-/-Blue-/-Apagar" transform="translate(48.000000, 5.000000)">
                    <path d="M5.85350305,5.14651778 C6.04899898,5.34201371 6.04899898,5.65800712 5.85350305,5.85350305 C5.75600508,5.95100102 5.62800775,6 5.50001042,6 C5.37201308,6 5.24401575,5.95100102 5.14651778,5.85350305 L3.0000625,3.70704777 L0.853607217,5.85350305 C0.756109248,5.95100102 0.628111914,6 0.500114581,6 C0.372117248,6 0.244119914,5.95100102 0.146621945,5.85350305 C-0.0488739818,5.65800712 -0.0488739818,5.34201371 0.146621945,5.14651778 L2.29307723,3.0000625 L0.146621945,0.853607217 C-0.0488739818,0.658111289 -0.0488739818,0.342117873 0.146621945,0.146621945 C0.342117873,-0.0488739818 0.658111289,-0.0488739818 0.853607217,0.146621945 L3.0000625,2.29307723 L5.14651778,0.146621945 C5.34201371,-0.0488739818 5.65800712,-0.0488739818 5.85350305,0.146621945 C6.04899898,0.342117873 6.04899898,0.658111289 5.85350305,0.853607217 L3.70704777,3.0000625 L5.85350305,5.14651778 Z" id="Path"></path>
                </g>
            </g>
        </g>
    </g>
</svg>